<svg width="230" height="112" viewBox="0 0 230 112" fill="none" xmlns="http://www.w3.org/2000/svg">
<path d="M30.3618 79V35.512H7.51375V22.456H72.1218V35.512H48.9858V79H30.3618ZM65.2368 79L93.3648 22.552H118.325L146.357 79H125.717L121.013 68.728H90.6768L85.3968 79H65.2368ZM95.9568 55.48H115.637L106.325 35.032H105.365L95.9568 55.48ZM155.796 79V30.232L154.836 22.456H199.284C203.572 22.456 206.996 22.936 209.556 23.896C212.18 24.792 214.132 26.04 215.412 27.64C216.756 29.176 217.62 31 218.004 33.112C218.452 35.16 218.676 37.336 218.676 39.64V47.224C218.676 50.296 218.164 53.144 217.14 55.768C216.18 58.328 214.356 60.408 211.668 62.008C209.044 63.544 205.236 64.312 200.244 64.312H193.62C189.588 64.312 185.812 64.216 182.292 64.024C178.836 63.832 176.244 63.672 174.516 63.544V79H155.796ZM174.516 51.256H194.388C196.5 51.256 197.972 50.84 198.804 50.008C199.636 49.176 200.052 47.832 200.052 45.976V41.08C200.052 39.224 199.668 37.88 198.9 37.048C198.132 36.152 196.66 35.704 194.484 35.704H174.516V51.256Z" fill="url(#paint0_linear_1101_32)"/>
<path d="M25 97.9688V108.25H23.6562V97.9688H19.6875V96.8438H28.9688V97.9688H25ZM36.2188 101.594V100.188H37.5V108.25H36.2188V106.781C35.75 107.812 34.75 108.375 33.5 108.375C31.3438 108.375 29.9375 106.719 29.9375 104.219C29.9375 101.719 31.375 100 33.5 100C34.75 100 35.7188 100.594 36.2188 101.594ZM36.2188 104.188C36.2188 102.188 35.3438 101.094 33.75 101.094C32.1562 101.094 31.25 102.25 31.25 104.219C31.25 106.188 32.1562 107.281 33.75 107.281C35.3438 107.281 36.2188 106.156 36.2188 104.188ZM40.8125 96.4688V108.25H39.5312V96.4688H40.8125ZM50.0312 103.938V104.188H44.1562C44.1562 106.219 45.0938 107.281 46.875 107.281C47.8125 107.281 48.6875 106.969 49.4688 106.344L49.9062 107.281C49.1875 107.938 48 108.375 46.875 108.375C44.3438 108.375 42.8438 106.781 42.8438 104.188C42.8438 101.719 44.4062 100 46.625 100C48.75 100 50.0312 101.5 50.0312 103.938ZM44.1875 103.344H48.875C48.75 101.812 47.9688 101.031 46.625 101.031C45.2812 101.031 44.4375 101.875 44.1875 103.344ZM58.9688 103.188V108.25H57.6875V103.25C57.6875 101.781 57.0938 101.094 55.8125 101.094C54.3438 101.094 53.3438 102.094 53.3438 103.656V108.25H52.0625V102.469C52.0625 101.625 52 100.875 51.9375 100.188H53.1562L53.2812 101.656C53.7812 100.594 54.8125 100 56.0625 100C58 100 58.9688 101.062 58.9688 103.188ZM65.375 100.188V101.219H63.0625V105.625C63.0625 106.812 63.5938 107.25 64.4688 107.25C64.7812 107.25 65.0625 107.188 65.3438 107.094V108.188C65 108.312 64.625 108.375 64.2188 108.375C62.6875 108.375 61.7812 107.469 61.7812 105.812V101.219H60.2188V100.188H61.7812V98.125L63.0625 97.6875V100.188H65.375ZM78.1875 96.8438L83.2188 108.25H81.875L80.625 105.312H74.6562L73.4062 108.25H72.0312L77.0312 96.8438H78.1875ZM80.1562 104.219L77.625 98.375L75.125 104.219H80.1562ZM91.6562 103.188V108.25H90.375V103.25C90.375 101.781 89.7812 101.094 88.5 101.094C87.0312 101.094 86.0312 102.094 86.0312 103.656V108.25H84.75V102.469C84.75 101.625 84.6875 100.875 84.625 100.188H85.8438L85.9688 101.656C86.4688 100.594 87.5 100 88.75 100C90.6875 100 91.6562 101.062 91.6562 103.188ZM99.8438 101.594V100.188H101.125V108.25H99.8438V106.781C99.375 107.812 98.375 108.375 97.125 108.375C94.9688 108.375 93.5625 106.719 93.5625 104.219C93.5625 101.719 95 100 97.125 100C98.375 100 99.3438 100.594 99.8438 101.594ZM99.8438 104.188C99.8438 102.188 98.9688 101.094 97.375 101.094C95.7812 101.094 94.875 102.25 94.875 104.219C94.875 106.188 95.7812 107.281 97.375 107.281C98.9688 107.281 99.8438 106.156 99.8438 104.188ZM104.438 96.4688V108.25H103.156V96.4688H104.438ZM109.969 106.844L112.719 100.188H114L110.25 109C109.469 110.812 108.281 111.562 106.562 111.875L106.281 110.875C107.031 110.688 107.594 110.469 108 110.188C108.375 109.906 108.719 109.469 108.969 108.875L109.281 108.156L105.875 100.188H107.25L109.969 106.844ZM119.469 100.188V101.219H117.156V105.625C117.156 106.812 117.688 107.25 118.562 107.25C118.875 107.25 119.156 107.188 119.438 107.094V108.188C119.094 108.312 118.719 108.375 118.312 108.375C116.781 108.375 115.875 107.469 115.875 105.812V101.219H114.312V100.188H115.875V98.125L117.156 97.6875V100.188H119.469ZM122.281 98.25H120.719V96.7812H122.281V98.25ZM122.125 100.188V108.25H120.844V100.188H122.125ZM124.188 104.219C124.188 101.719 125.719 100 128.094 100C129.188 100 130.281 100.406 130.938 101.062L130.5 102.031C129.688 101.375 128.938 101.094 128.156 101.094C126.5 101.094 125.531 102.25 125.531 104.219C125.531 106.156 126.5 107.281 128.156 107.281C128.938 107.281 129.688 107 130.5 106.375L130.938 107.312C130.25 107.969 129.125 108.375 128.031 108.375C125.688 108.375 124.188 106.719 124.188 104.219ZM132.469 107.312L132.906 106.375C133.781 107.062 134.625 107.312 135.75 107.312C136.938 107.312 137.594 106.875 137.594 106.094C137.594 105.469 137.188 105.125 136.219 104.875L134.844 104.562C133.5 104.25 132.75 103.469 132.75 102.406C132.75 101 133.969 100 135.844 100C136.969 100 138 100.375 138.688 101.062L138.25 102C137.5 101.375 136.688 101.062 135.844 101.062C134.688 101.062 134.031 101.531 134.031 102.312C134.031 102.969 134.406 103.344 135.281 103.531L136.625 103.875C138.125 104.25 138.844 104.938 138.844 106.062C138.844 107.469 137.625 108.375 135.688 108.375C134.312 108.375 133.25 108 132.469 107.312ZM148.562 108.25H147.25V96.8438H151.781C154.156 96.8438 155.531 98.0625 155.531 100.031C155.531 102.031 154.125 103.25 151.781 103.25H148.562V108.25ZM148.562 97.9375V102.156H151.688C153.375 102.156 154.219 101.406 154.219 100.031C154.219 98.6875 153.375 97.9375 151.688 97.9375H148.562ZM159.469 96.4688V108.25H158.188V96.4688H159.469ZM167.781 101.594V100.188H169.062V108.25H167.781V106.781C167.312 107.812 166.312 108.375 165.062 108.375C162.906 108.375 161.5 106.719 161.5 104.219C161.5 101.719 162.938 100 165.062 100C166.312 100 167.281 100.594 167.781 101.594ZM167.781 104.188C167.781 102.188 166.906 101.094 165.312 101.094C163.719 101.094 162.812 102.25 162.812 104.219C162.812 106.188 163.719 107.281 165.312 107.281C166.906 107.281 167.781 106.156 167.781 104.188ZM175.125 100.188V101.219H172.812V105.625C172.812 106.812 173.344 107.25 174.219 107.25C174.531 107.25 174.812 107.188 175.094 107.094V108.188C174.75 108.312 174.375 108.375 173.969 108.375C172.438 108.375 171.531 107.469 171.531 105.812V101.219H169.969V100.188H171.531V98.125L172.812 97.6875V100.188H175.125ZM178.219 99.125V100.188H180.188V101.219H178.219V108.25H176.938V101.219H175.375V100.188H176.938V98.9688C176.938 97.2812 177.812 96.4062 179.344 96.4062C179.688 96.4062 180.062 96.4688 180.406 96.5625V97.6562C180.125 97.5625 179.844 97.5312 179.594 97.5312C178.75 97.5312 178.219 97.9688 178.219 99.125ZM181.312 104.188C181.312 101.656 182.812 100 185.094 100C187.406 100 188.906 101.656 188.906 104.188C188.906 106.719 187.406 108.375 185.094 108.375C182.812 108.375 181.312 106.719 181.312 104.188ZM187.594 104.188C187.594 102.219 186.656 101.094 185.094 101.094C183.531 101.094 182.625 102.219 182.625 104.188C182.625 106.219 183.5 107.281 185.094 107.281C186.719 107.281 187.594 106.219 187.594 104.188ZM195.406 100.094L195.375 101.281C195.156 101.219 194.844 101.156 194.531 101.156C193.75 101.156 193.188 101.406 192.781 101.906C192.438 102.375 192.219 102.969 192.219 103.656V108.25H190.938V102.469C190.938 101.625 190.875 100.875 190.812 100.188H192.031L192.156 101.688C192.562 100.594 193.531 100 194.688 100C194.938 100 195.188 100.031 195.406 100.094ZM209.375 103.188V108.25H208.094V103.25C208.094 101.75 207.594 101.094 206.406 101.094C205.062 101.094 204.25 102.062 204.25 103.656V108.25H202.938V103.25C202.938 101.781 202.438 101.094 201.281 101.094C199.906 101.094 199.062 102.062 199.062 103.656V108.25H197.781V102.469C197.781 101.625 197.719 100.875 197.656 100.188H198.875L199 101.625C199.469 100.594 200.375 100 201.562 100C202.844 100 203.625 100.5 204.031 101.562C204.5 100.625 205.5 100 206.719 100C208.469 100 209.375 101.062 209.375 103.188Z" fill="black"/>
<defs>
<linearGradient id="paint0_linear_1101_32" x1="115" y1="0" x2="115" y2="100" gradientUnits="userSpaceOnUse">
<stop stop-color="#E36933"/>
<stop offset="1" stop-color="#A80867"/>
</linearGradient>
</defs>
</svg>
